<svg version="1.1" xmlns="http://www.w3.org/2000/svg" viewBox="0 0 180 123.33331298828125" width="180" height="123.33331298828125" filter="invert(93%) hue-rotate(180deg)">
  <!-- svg-source:excalidraw -->
  
  <defs>
    <style>
      @font-face {
        font-family: "Virgil";
        src: url("https://unpkg.com/@zsviczian/excalidraw@0.12.0-obsidian-9/dist/excalidraw-assets/Virgil.woff2");
      }
      @font-face {
        font-family: "Cascadia";
        src: url("https://unpkg.com/@zsviczian/excalidraw@0.12.0-obsidian-9/dist/excalidraw-assets/Cascadia.woff2");
      }
    </style>
  </defs>
  <rect x="0" y="0" width="180" height="123.33331298828125" fill="#ffffff"/><g stroke-linecap="round" transform="translate(10 10) rotate(0 80 51.666656494140625)"><path d="M-0.91 0.75 C60.33 -0.77, 122.89 1.65, 161.98 1.96 M-0.63 0.18 C32.76 0.29, 66.15 -0.13, 160.95 0.93 M158.32 1.77 C161.84 23.66, 160.4 45.6, 160.37 102.29 M159.85 0.04 C159.64 31.36, 158.59 64.56, 159.59 103.23 M161.82 101.53 C118.28 102.92, 77.41 105.09, -1.86 102.01 M159.19 102.73 C100.12 104.07, 39.3 103.95, -0.29 103.21 M0.88 103.18 C0.48 72.98, 1.15 42.53, 1.63 -1.93 M0.41 104.22 C0.75 69.69, 0.42 35.35, 0.32 0.89" stroke="#000000" stroke-width="1" fill="none"/></g></svg>